<?xml version="1.0" standalone="no"?>
<!DOCTYPE svg PUBLIC "-//W3C//DTD SVG 1.1//EN" "http://www.w3.org/Graphics/SVG/1.1/DTD/svg11.dtd">

<svg width="994" height="139" style="" 
  xmlns="http://www.w3.org/2000/svg"
  xmlns:xlink="http://www.w3.org/1999/xlink">


<rect x="6" y="6" width="13" height="13" fill="#ebedf0"/>
<rect x="6" y="25" width="13" height="13" fill="#ebedf0"/>
<rect x="6" y="44" width="13" height="13" fill="#ebedf0"/>
<rect x="6" y="63" width="13" height="13" fill="#ebedf0"/>
<rect x="6" y="82" width="13" height="13" fill="#ebedf0"/>
<rect x="6" y="101" width="13" height="13" fill="#ebedf0"/>
<rect x="6" y="120" width="13" height="13" fill="#ebedf0"/>
<rect x="25" y="6" width="13" height="13" fill="#ebedf0"/>
<rect x="25" y="25" width="13" height="13" fill="#ebedf0"/>
<rect x="25" y="44" width="13" height="13" fill="#ebedf0"/>
<rect x="25" y="63" width="13" height="13" fill="#ebedf0"/>
<rect x="25" y="82" width="13" height="13" fill="#ebedf0"/>
<rect x="25" y="101" width="13" height="13" fill="#ebedf0"/>
<rect x="25" y="120" width="13" height="13" fill="#ebedf0"/>
<rect x="44" y="6" width="13" height="13" fill="#ebedf0"/>
<rect x="44" y="25" width="13" height="13" fill="#ebedf0"/>
<rect x="44" y="44" width="13" height="13" fill="#ebedf0"/>
<rect x="44" y="63" width="13" height="13" fill="#ebedf0"/>
<rect x="44" y="82" width="13" height="13" fill="#ebedf0"/>
<rect x="44" y="101" width="13" height="13" fill="#ebedf0"/>
<rect x="44" y="120" width="13" height="13" fill="#ebedf0"/>
<rect x="63" y="6" width="13" height="13" fill="#ebedf0"/>
<rect x="63" y="25" width="13" height="13" fill="#ebedf0"/>
<rect x="63" y="44" width="13" height="13" fill="#ebedf0"/>
<rect x="63" y="63" width="13" height="13" fill="#ebedf0"/>
<rect x="63" y="82" width="13" height="13" fill="#ebedf0"/>
<rect x="63" y="101" width="13" height="13" fill="#ebedf0"/>
<rect x="63" y="120" width="13" height="13" fill="#ebedf0"/>
<rect x="82" y="6" width="13" height="13" fill="#ebedf0"/>
<rect x="82" y="25" width="13" height="13" fill="#ebedf0"/>
<rect x="82" y="44" width="13" height="13" fill="#ebedf0"/>
<rect x="82" y="63" width="13" height="13" fill="#ebedf0"/>
<rect x="82" y="82" width="13" height="13" fill="#ebedf0"/>
<rect x="82" y="101" width="13" height="13" fill="#ebedf0"/>
<rect x="82" y="120" width="13" height="13" fill="#ebedf0"/>
<rect x="101" y="6" width="13" height="13" fill="#ebedf0"/>
<rect x="101" y="25" width="13" height="13" fill="#ebedf0"/>
<rect x="101" y="44" width="13" height="13" fill="#ebedf0"/>
<rect x="101" y="63" width="13" height="13" fill="#ebedf0"/>
<rect x="101" y="82" width="13" height="13" fill="#ebedf0"/>
<rect x="101" y="101" width="13" height="13" fill="#ebedf0"/>
<rect x="101" y="120" width="13" height="13" fill="#ebedf0"/>
<rect x="120" y="6" width="13" height="13" fill="#ebedf0"/>
<rect x="120" y="25" width="13" height="13" fill="#ebedf0"/>
<rect x="120" y="44" width="13" height="13" fill="#ebedf0"/>
<rect x="120" y="63" width="13" height="13" fill="#ebedf0"/>
<rect x="120" y="82" width="13" height="13" fill="#ebedf0"/>
<rect x="120" y="101" width="13" height="13" fill="#ebedf0"/>
<rect x="120" y="120" width="13" height="13" fill="#ebedf0"/>
<rect x="139" y="6" width="13" height="13" fill="#ebedf0"/>
<rect x="139" y="25" width="13" height="13" fill="#ebedf0"/>
<rect x="139" y="44" width="13" height="13" fill="#ebedf0"/>
<rect x="139" y="63" width="13" height="13" fill="#ebedf0"/>
<rect x="139" y="82" width="13" height="13" fill="#ebedf0"/>
<rect x="139" y="101" width="13" height="13" fill="#ebedf0"/>
<rect x="139" y="120" width="13" height="13" fill="#ebedf0"/>
<rect x="158" y="6" width="13" height="13" fill="#ebedf0"/>
<rect x="158" y="25" width="13" height="13" fill="#ebedf0"/>
<rect x="158" y="44" width="13" height="13" fill="#ebedf0"/>
<rect x="158" y="63" width="13" height="13" fill="#ebedf0"/>
<rect x="158" y="82" width="13" height="13" fill="#ebedf0"/>
<rect x="158" y="101" width="13" height="13" fill="#ebedf0"/>
<rect x="158" y="120" width="13" height="13" fill="#ebedf0"/>
<rect x="177" y="6" width="13" height="13" fill="#ebedf0"/>
<rect x="177" y="25" width="13" height="13" fill="#ebedf0"/>
<rect x="177" y="44" width="13" height="13" fill="#ebedf0"/>
<rect x="177" y="63" width="13" height="13" fill="#ebedf0"/>
<rect x="177" y="82" width="13" height="13" fill="#ebedf0"/>
<rect x="177" y="101" width="13" height="13" fill="#ebedf0"/>
<rect x="177" y="120" width="13" height="13" fill="#ebedf0"/>
<rect x="196" y="6" width="13" height="13" fill="#ebedf0"/>
<rect x="196" y="25" width="13" height="13" fill="#ebedf0"/>
<rect x="196" y="44" width="13" height="13" fill="#ebedf0"/>
<rect x="196" y="63" width="13" height="13" fill="#ebedf0"/>
<rect x="196" y="82" width="13" height="13" fill="#ebedf0"/>
<rect x="196" y="101" width="13" height="13" fill="#ebedf0"/>
<rect x="196" y="120" width="13" height="13" fill="#ebedf0"/>
<rect x="215" y="6" width="13" height="13" fill="#ebedf0"/>
<rect x="215" y="25" width="13" height="13" fill="#ebedf0"/>
<rect x="215" y="44" width="13" height="13" fill="#ebedf0"/>
<rect x="215" y="63" width="13" height="13" fill="#ebedf0"/>
<rect x="215" y="82" width="13" height="13" fill="#ebedf0"/>
<rect x="215" y="101" width="13" height="13" fill="#ebedf0"/>
<rect x="215" y="120" width="13" height="13" fill="#ebedf0"/>
<rect x="234" y="6" width="13" height="13" fill="#ebedf0"/>
<rect x="234" y="25" width="13" height="13" fill="#ebedf0"/>
<rect x="234" y="44" width="13" height="13" fill="#ebedf0"/>
<rect x="234" y="63" width="13" height="13" fill="#ebedf0"/>
<rect x="234" y="82" width="13" height="13" fill="#ebedf0"/>
<rect x="234" y="101" width="13" height="13" fill="#ebedf0"/>
<rect x="234" y="120" width="13" height="13" fill="#ebedf0"/>
<rect x="253" y="6" width="13" height="13" fill="#ebedf0"/>
<rect x="253" y="25" width="13" height="13" fill="#ebedf0"/>
<rect x="253" y="44" width="13" height="13" fill="#ebedf0"/>
<rect x="253" y="63" width="13" height="13" fill="#ebedf0"/>
<rect x="253" y="82" width="13" height="13" fill="#ebedf0"/>
<rect x="253" y="101" width="13" height="13" fill="#ebedf0"/>
<rect x="253" y="120" width="13" height="13" fill="#ebedf0"/>
<rect x="272" y="6" width="13" height="13" fill="#ebedf0"/>
<rect x="272" y="25" width="13" height="13" fill="#ebedf0"/>
<rect x="272" y="44" width="13" height="13" fill="#ebedf0"/>
<rect x="272" y="63" width="13" height="13" fill="#ebedf0"/>
<rect x="272" y="82" width="13" height="13" fill="#7bc96f"/>
<rect x="272" y="101" width="13" height="13" fill="#ebedf0"/>
<rect x="272" y="120" width="13" height="13" fill="#ebedf0"/>
<rect x="291" y="6" width="13" height="13" fill="#ebedf0"/>
<rect x="291" y="25" width="13" height="13" fill="#ebedf0"/>
<rect x="291" y="44" width="13" height="13" fill="#ebedf0"/>
<rect x="291" y="63" width="13" height="13" fill="#ebedf0"/>
<rect x="291" y="82" width="13" height="13" fill="#ebedf0"/>
<rect x="291" y="101" width="13" height="13" fill="#ebedf0"/>
<rect x="291" y="120" width="13" height="13" fill="#ebedf0"/>
<rect x="310" y="6" width="13" height="13" fill="#ebedf0"/>
<rect x="310" y="25" width="13" height="13" fill="#ebedf0"/>
<rect x="310" y="44" width="13" height="13" fill="#ebedf0"/>
<rect x="310" y="63" width="13" height="13" fill="#ebedf0"/>
<rect x="310" y="82" width="13" height="13" fill="#ebedf0"/>
<rect x="310" y="101" width="13" height="13" fill="#ebedf0"/>
<rect x="310" y="120" width="13" height="13" fill="#ebedf0"/>
<rect x="329" y="6" width="13" height="13" fill="#ebedf0"/>
<rect x="329" y="25" width="13" height="13" fill="#ebedf0"/>
<rect x="329" y="44" width="13" height="13" fill="#ebedf0"/>
<rect x="329" y="63" width="13" height="13" fill="#ebedf0"/>
<rect x="329" y="82" width="13" height="13" fill="#ebedf0"/>
<rect x="329" y="101" width="13" height="13" fill="#ebedf0"/>
<rect x="329" y="120" width="13" height="13" fill="#ebedf0"/>
<rect x="348" y="6" width="13" height="13" fill="#ebedf0"/>
<rect x="348" y="25" width="13" height="13" fill="#ebedf0"/>
<rect x="348" y="44" width="13" height="13" fill="#ebedf0"/>
<rect x="348" y="63" width="13" height="13" fill="#ebedf0"/>
<rect x="348" y="82" width="13" height="13" fill="#ebedf0"/>
<rect x="348" y="101" width="13" height="13" fill="#ebedf0"/>
<rect x="348" y="120" width="13" height="13" fill="#ebedf0"/>
<rect x="367" y="6" width="13" height="13" fill="#ebedf0"/>
<rect x="367" y="25" width="13" height="13" fill="#ebedf0"/>
<rect x="367" y="44" width="13" height="13" fill="#ebedf0"/>
<rect x="367" y="63" width="13" height="13" fill="#ebedf0"/>
<rect x="367" y="82" width="13" height="13" fill="#ebedf0"/>
<rect x="367" y="101" width="13" height="13" fill="#ebedf0"/>
<rect x="367" y="120" width="13" height="13" fill="#ebedf0"/>
<rect x="386" y="6" width="13" height="13" fill="#ebedf0"/>
<rect x="386" y="25" width="13" height="13" fill="#ebedf0"/>
<rect x="386" y="44" width="13" height="13" fill="#ebedf0"/>
<rect x="386" y="63" width="13" height="13" fill="#ebedf0"/>
<rect x="386" y="82" width="13" height="13" fill="#ebedf0"/>
<rect x="386" y="101" width="13" height="13" fill="#ebedf0"/>
<rect x="386" y="120" width="13" height="13" fill="#ebedf0"/>
<rect x="405" y="6" width="13" height="13" fill="#ebedf0"/>
<rect x="405" y="25" width="13" height="13" fill="#ebedf0"/>
<rect x="405" y="44" width="13" height="13" fill="#ebedf0"/>
<rect x="405" y="63" width="13" height="13" fill="#ebedf0"/>
<rect x="405" y="82" width="13" height="13" fill="#ebedf0"/>
<rect x="405" y="101" width="13" height="13" fill="#ebedf0"/>
<rect x="405" y="120" width="13" height="13" fill="#ebedf0"/>
<rect x="424" y="6" width="13" height="13" fill="#ebedf0"/>
<rect x="424" y="25" width="13" height="13" fill="#ebedf0"/>
<rect x="424" y="44" width="13" height="13" fill="#ebedf0"/>
<rect x="424" y="63" width="13" height="13" fill="#ebedf0"/>
<rect x="424" y="82" width="13" height="13" fill="#ebedf0"/>
<rect x="424" y="101" width="13" height="13" fill="#c6e48b"/>
<rect x="424" y="120" width="13" height="13" fill="#ebedf0"/>
<rect x="443" y="6" width="13" height="13" fill="#ebedf0"/>
<rect x="443" y="25" width="13" height="13" fill="#ebedf0"/>
<rect x="443" y="44" width="13" height="13" fill="#ebedf0"/>
<rect x="443" y="63" width="13" height="13" fill="#ebedf0"/>
<rect x="443" y="82" width="13" height="13" fill="#ebedf0"/>
<rect x="443" y="101" width="13" height="13" fill="#ebedf0"/>
<rect x="443" y="120" width="13" height="13" fill="#ebedf0"/>
<rect x="462" y="6" width="13" height="13" fill="#ebedf0"/>
<rect x="462" y="25" width="13" height="13" fill="#ebedf0"/>
<rect x="462" y="44" width="13" height="13" fill="#c6e48b"/>
<rect x="462" y="63" width="13" height="13" fill="#ebedf0"/>
<rect x="462" y="82" width="13" height="13" fill="#ebedf0"/>
<rect x="462" y="101" width="13" height="13" fill="#ebedf0"/>
<rect x="462" y="120" width="13" height="13" fill="#ebedf0"/>
<rect x="481" y="6" width="13" height="13" fill="#ebedf0"/>
<rect x="481" y="25" width="13" height="13" fill="#ebedf0"/>
<rect x="481" y="44" width="13" height="13" fill="#ebedf0"/>
<rect x="481" y="63" width="13" height="13" fill="#ebedf0"/>
<rect x="481" y="82" width="13" height="13" fill="#ebedf0"/>
<rect x="481" y="101" width="13" height="13" fill="#ebedf0"/>
<rect x="481" y="120" width="13" height="13" fill="#ebedf0"/>
<rect x="500" y="6" width="13" height="13" fill="#ebedf0"/>

</svg>